<?xml version="1.0" encoding="UTF-8"?>
<svg id="Layer_1" xmlns="http://www.w3.org/2000/svg" version="1.1" viewBox="0 0 54.91 21.83">
  <!-- Generator: Adobe Illustrator 29.8.2, SVG Export Plug-In . SVG Version: 2.1.1 Build 3)  -->
  <defs>
    <style>
      .st0 {
        fill: #8cbe4f;
      }

      .st1 {
        fill: #c5d644;
      }

      .st2 {
        fill: #42ad9c;
      }

      .st3 {
        fill: #003e45;
        fill-rule: evenodd;
      }
    </style>
  </defs>
  <path class="st3" d="M33.43,7.71h-.04c-1.92.02-3.1,1.47-3.1,3.29s1.08,3.22,3.03,3.22h.07c1.91-.03,3.1-1.31,3.1-3.32,0-1.68-1.03-3.19-3.06-3.19ZM33.41,12.89h-.02s0,0,0,0c-.81,0-1.32-.79-1.31-1.92,0-1.1.5-1.92,1.31-1.92h0c.82,0,1.31.82,1.31,1.91,0,1.14-.48,1.93-1.29,1.93ZM40.17,7.71h-.04c-1.92.02-3.1,1.47-3.1,3.29s1.08,3.22,3.03,3.22h.07c1.9-.03,3.1-1.31,3.1-3.32,0-1.68-1.03-3.19-3.06-3.19ZM40.15,12.89h-.02c-.81,0-1.32-.79-1.31-1.92,0-1.1.5-1.92,1.31-1.92s1.31.82,1.31,1.91c0,1.14-.48,1.93-1.29,1.93ZM47.48,10.71v-.02c.74-.28,1.03-.8,1.03-1.32,0-.62-.36-1.07-.85-1.3-.41-.21-.87-.29-1.54-.3-.12,0-.25,0-.38,0-.78,0-1.61.06-1.99.14v6.18c.34.07.9.11,1.67.11.26,0,.49,0,.71-.02.92-.06,1.51-.25,1.89-.54.42-.32.71-.79.71-1.39,0-.75-.47-1.32-1.24-1.54ZM45.41,9.02c.11-.02.27-.04.55-.04.05,0,.1,0,.15,0,.47.04.7.26.7.59s-.23.56-.7.63c-.11.02-.23.03-.37.03h-.34v-1.22ZM46.11,12.95c-.07,0-.14.01-.21.01-.22,0-.37,0-.49-.02v-1.51h.4c.1,0,.2,0,.3.02.48.06.82.28.82.72,0,.49-.36.72-.82.78ZM22.56,7.81v6.31h1.69v-5.28c0-.79-.43-1.03-1.69-1.03ZM20.09,10.3c-.8-.3-1.13-.42-1.13-.74,0-.28.28-.47.8-.47.63,0,1.25.23,1.37.3.24-.65.38-1.68-1.35-1.68-1.59,0-2.54.86-2.54,1.98,0,.94.71,1.52,1.78,1.9.71.24.99.41.99.72s-.28.51-.86.51c-.64,0-1.25-.2-1.64-.39l-.32,1.39c.36.19,1.1.38,1.85.38,1.84,0,2.69-.93,2.69-2.01,0-.88-.5-1.48-1.64-1.9ZM28.68,12.81c-1.16,0-1.84-.71-1.84-1.85,0-1.28.84-1.85,1.81-1.85.51,0,1.03.15,1.17.22.3-.68.23-1.61-1.25-1.61-1.88,0-3.51,1.13-3.51,3.35,0,1.68,1.04,3.15,3.4,3.15.75,0,1.35-.14,1.58-.26l-.23-1.32c-.26.1-.72.18-1.12.18Z"/>
  <g>
    <path class="st0" d="M6.73,6.2c-.08,0-.17.03-.24.08-.19.11-.29.3-.29.5,0,.09.02.18.06.26l2.86,4.97.93-1.6h0l1.51-2.61-.92-1.6h-3.9Z"/>
    <path class="st2" d="M10.63,6.2l2.43,4.21h1.85l1.94-3.38c.04-.07.06-.16.06-.25,0-.31-.24-.56-.55-.58h-5.73Z"/>
    <path class="st1" d="M14.77,10.4h-4.73l-.93,1.6,1.96,3.37c.05.07.11.13.19.18.09.05.19.08.29.08.19,0,.38-.1.49-.26l2.87-4.96h-.14Z"/>
  </g>
</svg>